<svg version="1.1" id="Layer_1" xmlns="http://www.w3.org/2000/svg" xmlns:xlink="http://www.w3.org/1999/xlink" x="0px" y="0px"
	 width="100%" viewBox="0 0 500 500" enable-background="new 0 0 500 500" xml:space="preserve">
<path fill="#000101" opacity="1.000000" stroke="none" 
	d="
M350.000000,501.000000 
	C233.333359,501.000000 117.166725,501.000000 1.000062,501.000000 
	C1.000041,334.333405 1.000041,167.666809 1.000021,1.000152 
	C167.666550,1.000101 334.333099,1.000101 500.999756,1.000051 
	C500.999817,167.666519 500.999817,334.333038 500.999908,500.999786 
	C450.833344,501.000000 400.666656,501.000000 350.000000,501.000000 
M213.002365,328.943329 
	C215.281448,328.943329 217.560547,328.943329 220.299255,328.943329 
	C220.299255,337.153534 220.299255,344.894592 220.299255,352.663391 
	C223.152634,352.663391 225.519058,352.663391 228.293137,352.663391 
	C228.293137,344.571747 228.293137,336.825897 228.293137,329.108154 
	C231.470016,328.968292 234.227890,328.846924 237.183655,328.716827 
	C237.089996,326.796082 237.017593,325.311523 237.742203,323.584656 
	C240.423950,331.246124 243.164078,338.887848 245.770294,346.574921 
	C248.158585,353.619202 248.094894,353.640808 255.907898,352.571503 
	C257.645721,346.407074 259.395844,340.199036 261.538605,332.598145 
	C263.698669,340.289062 265.473328,346.607666 267.491791,353.794373 
	C270.469788,352.900818 274.817444,352.794342 275.447571,351.209625 
	C279.093811,342.039703 281.863342,332.521149 285.016327,322.854736 
	C282.121368,322.854736 279.807281,322.854736 277.238190,322.854736 
	C275.421082,329.579926 273.607971,336.290283 271.397705,344.470581 
	C269.177399,336.417847 267.340729,329.756439 265.475769,322.992462 
	C262.891632,322.992462 260.466736,322.992462 257.882141,322.992462 
	C256.101135,329.624542 254.370438,336.069336 252.639725,342.514130 
	C250.329330,337.960907 249.099655,333.402252 247.892853,328.837524 
	C246.104797,322.074127 243.645111,320.959473 236.605957,322.982819 
	C228.398544,322.924469 220.191116,322.866150 211.673920,322.449036 
	C211.117508,322.617493 210.561081,322.785919 209.079788,322.785736 
	C202.164413,322.785736 195.249039,322.785736 188.355453,322.785736 
	C188.355453,333.192444 188.355453,343.050690 188.355453,352.715515 
	C190.976318,352.715515 193.236389,352.715515 195.948425,352.715515 
	C195.948425,349.029144 195.948425,345.623413 195.948425,341.943787 
	C200.512177,341.943787 204.619583,341.943787 208.929993,341.943787 
	C208.929993,339.769867 208.929993,337.901062 208.929993,335.681885 
	C204.482285,335.681885 200.373978,335.681885 196.131668,335.681885 
	C196.131668,333.271545 196.131668,331.221863 196.131668,328.772980 
	C200.877563,328.772980 205.336792,328.772980 210.558044,328.925476 
	C211.070953,328.917175 211.583878,328.908844 213.002365,328.943329 
M229.019760,122.367828 
	C235.179764,119.956337 241.219360,117.144020 247.533981,115.247353 
	C253.709442,113.392471 254.524643,114.314682 254.590790,120.671043 
	C254.644501,125.833206 254.602493,130.996368 254.602585,136.159088 
	C254.602737,145.281525 254.602631,154.403961 254.602631,163.914764 
	C257.197571,164.080505 259.322998,164.285172 261.452271,164.339447 
	C268.099701,164.508942 268.498505,164.114624 268.493164,157.403824 
	C268.479401,140.083755 268.455261,122.763657 268.404816,105.443665 
	C268.399689,103.682602 268.188324,101.922142 268.005951,99.145576 
	C260.398407,99.785408 253.232574,99.839584 246.272461,101.063499 
	C204.658234,108.381195 178.429047,154.281479 193.061981,193.666306 
	C198.085770,207.187958 206.828674,217.851852 217.791626,226.887985 
	C224.891296,232.739807 229.615616,239.959091 230.484787,249.243423 
	C230.620300,250.691116 229.346954,253.403366 228.330368,253.612549 
	C225.353363,254.225098 223.669678,255.327377 224.050156,258.492523 
	C224.448334,261.804871 226.770142,262.848938 229.726257,262.856323 
	C239.885040,262.881622 250.045242,262.766174 260.202179,262.904327 
	C264.035156,262.956451 263.851776,260.655853 263.955200,257.989624 
	C264.064697,255.167465 263.451965,253.556046 260.180939,253.676361 
	C254.690811,253.878265 249.183731,254.004059 243.701370,253.762619 
	C242.321396,253.701828 240.097778,252.345169 239.824356,251.208282 
	C238.734528,246.676590 238.261612,241.996567 237.600189,237.634384 
	C244.469193,238.648132 251.590271,239.699081 259.014740,240.794815 
	C259.014740,236.551056 258.745483,233.386902 259.089966,230.291031 
	C259.439026,227.153870 258.469452,226.094498 255.326736,226.216965 
	C244.085617,226.654999 234.316406,221.988297 225.948166,215.413223 
	C194.574753,190.762497 195.975266,145.825287 229.019760,122.367828 
M299.229462,203.728485 
	C325.000336,178.085815 313.162842,132.362793 279.073425,122.265831 
	C279.677338,128.091537 276.966888,134.066116 283.899414,138.706955 
	C297.233490,147.633179 302.162689,161.210098 299.541840,176.596191 
	C296.854492,192.372375 286.818542,202.765747 271.209229,206.752548 
	C255.269745,210.823700 241.983566,205.835785 231.725296,193.060394 
	C219.693787,178.076630 221.807755,152.797928 235.909409,141.408066 
	C243.361694,135.388870 244.009369,133.359711 241.238068,123.668877 
	C239.560593,124.260811 237.784531,124.614075 236.284180,125.457680 
	C210.678070,139.855194 203.239975,175.336212 220.476303,199.249573 
	C237.418198,222.754410 274.858734,229.937225 299.229462,203.728485 
M152.959702,345.295013 
	C153.866531,346.478210 154.645798,347.792145 155.701859,348.822418 
	C160.806931,353.802887 169.786041,354.757294 176.107269,351.083954 
	C182.015656,347.650513 184.945251,341.011627 183.428818,334.492188 
	C181.289276,325.293793 171.506744,320.210846 161.776154,323.241608 
	C152.825684,326.029388 149.094955,334.725281 152.959702,345.295013 
M342.556305,353.014648 
	C344.134460,353.014648 345.712646,353.014648 347.979797,353.014648 
	C345.701996,349.315704 343.831696,346.278503 341.830750,343.029175 
	C347.031006,339.705597 347.939758,334.969116 346.634766,329.770203 
	C345.578979,325.564056 342.115082,323.473145 338.133698,323.179657 
	C332.542480,322.767395 326.898163,323.075470 321.318848,323.075470 
	C321.318848,333.081055 321.318848,342.980164 321.318848,352.748810 
	C323.912140,352.748810 326.179352,352.748810 328.935120,352.748810 
	C328.935120,349.915985 328.935120,347.339874 328.935120,344.991425 
	C333.398102,343.452362 335.495880,345.243042 337.197479,348.771606 
	C338.036530,350.511444 340.184540,351.619995 342.556305,353.014648 
M357.731415,322.749268 
	C355.922943,322.749268 354.114471,322.749268 352.318481,322.749268 
	C352.318481,333.028503 352.318481,342.913849 352.318481,352.753967 
	C360.390778,352.753967 368.140930,352.753967 375.898041,352.753967 
	C375.898041,350.757751 375.898041,349.023560 375.898041,346.772949 
	C370.420776,346.772949 365.197296,346.772949 360.028503,346.772949 
	C360.028503,344.630005 360.028503,343.011169 360.028503,340.853027 
	C364.760712,340.853027 369.324097,340.853027 373.819122,340.853027 
	C373.819122,338.572510 373.819122,336.837921 373.819122,334.711060 
	C369.083221,334.711060 364.654938,334.711060 360.148376,334.711060 
	C360.148376,332.588806 360.148376,330.869720 360.148376,328.642914 
	C365.508087,328.642914 370.572113,328.642914 375.687408,328.642914 
	C375.687408,326.495941 375.687408,324.862549 375.687408,322.749359 
	C369.910034,322.749359 364.293335,322.749359 357.731415,322.749268 
M134.188751,322.701813 
	C129.455078,323.425293 125.375076,325.001526 124.781235,330.584839 
	C124.262405,335.462860 126.448517,337.884857 133.051071,340.042969 
	C134.472305,340.507507 136.074249,340.683380 137.279083,341.471863 
	C138.502289,342.272369 139.337311,343.666107 140.342331,344.800018 
	C138.835251,345.510345 137.151260,347.048431 135.855194,346.771454 
	C132.366257,346.025757 129.042862,344.505493 125.387085,343.197266 
	C124.618294,344.723114 123.742691,346.460968 122.778557,348.374512 
	C129.009583,352.937286 135.491791,354.452423 142.678543,352.042236 
	C146.346619,350.812134 148.622696,348.236969 148.693848,344.315704 
	C148.768356,340.208221 146.551590,337.434784 142.719208,336.002808 
	C140.231171,335.073120 137.634109,334.387115 135.251938,333.245453 
	C134.271957,332.775787 133.728195,331.395966 132.986008,330.430115 
	C134.043945,329.872955 135.193512,328.720856 136.143112,328.867096 
	C139.355667,329.361908 142.497375,330.316803 145.951111,331.165955 
	C146.776047,329.472290 147.622879,327.733612 149.139999,324.618805 
	C143.879623,323.852753 139.438217,323.205963 134.188751,322.701813 
M292.203583,335.636383 
	C289.812225,341.263672 287.420837,346.890991 284.900177,352.822449 
	C287.742310,352.822449 290.177216,352.822449 292.612122,352.822449 
	C292.398743,352.482452 292.185394,352.142426 291.972015,351.802429 
	C293.980194,350.332520 295.932312,347.724213 298.007843,347.622009 
	C302.810425,347.385468 309.148651,344.893433 310.379791,352.684143 
	C313.195557,352.684143 315.574005,352.684143 318.397217,352.684143 
	C314.698181,343.843140 311.121490,335.472717 307.708160,327.036163 
	C306.573212,324.230988 305.439606,322.518372 301.755310,322.558197 
	C298.059113,322.598145 296.906799,324.340576 295.885864,327.185059 
	C294.934662,329.835327 293.688812,332.379852 292.203583,335.636383 
M262.334839,278.990387 
	C265.688477,272.898163 264.338318,270.282654 257.747742,270.325195 
	C249.126694,270.380798 240.506622,270.580719 231.885574,270.643219 
	C229.044891,270.663788 226.303299,270.829010 226.145538,274.490570 
	C225.984787,278.221069 228.574295,279.300201 231.708771,279.309723 
	C241.647110,279.339935 251.585724,279.273804 262.334839,278.990387 
M254.399673,285.215271 
	C250.075928,285.314056 245.682648,285.003967 241.464188,285.721649 
	C239.874023,285.992188 237.535339,288.719849 237.634445,290.185608 
	C237.739075,291.732788 240.241486,294.212250 241.876114,294.365326 
	C247.819183,294.921906 253.838425,294.629028 259.827026,294.750702 
	C262.789429,294.810883 263.988495,293.547974 263.965485,290.556427 
	C263.942505,287.572205 263.605011,285.160522 259.848602,285.186218 
	C258.350372,285.196472 256.852081,285.201263 254.399673,285.215271 
M264.819122,377.369415 
	C264.943085,379.270538 265.067047,381.171631 265.190979,383.072754 
	C265.738892,383.061096 266.286804,383.049438 266.834747,383.037750 
	C266.950378,380.439484 267.066010,377.841187 267.236145,374.018280 
	C269.114838,377.342834 270.409210,379.633362 272.038239,382.516113 
	C273.799927,379.479858 275.067169,377.295746 276.334412,375.111633 
	C276.683899,375.173584 277.033386,375.235535 277.382874,375.297455 
	C277.382874,377.872009 277.382874,380.446564 277.382874,383.021088 
	C277.817963,383.000946 278.253082,382.980774 278.688171,382.960602 
	C278.688171,378.375061 278.688171,373.789520 278.688171,369.203949 
	C278.226227,368.994781 277.764313,368.785614 277.302368,368.576477 
	C275.613831,371.497131 273.925293,374.417786 272.151459,377.485962 
	C270.110382,374.273926 268.296997,371.420166 266.483582,368.566437 
	C265.928650,368.769501 265.373749,368.972565 264.818817,369.175629 
	C264.818817,371.611694 264.818817,374.047760 264.819122,377.369415 
M293.318634,371.827057 
	C291.794189,375.451385 290.269745,379.075714 288.745300,382.700012 
	C293.697845,377.760498 298.150116,379.610657 302.703857,383.195465 
	C301.159393,378.791443 299.604309,375.021332 297.911774,371.313904 
	C296.671753,368.597717 295.199921,367.874023 293.318634,371.827057 
M222.449402,382.742920 
	C223.616898,381.718140 224.784409,380.693329 226.799088,378.924896 
	C228.229675,380.016632 230.376755,381.655090 231.788055,382.732086 
	C232.229843,380.234894 232.565262,377.946533 233.050354,375.690338 
	C233.754395,372.415955 232.894012,369.980835 229.354431,369.436646 
	C227.150879,369.097839 224.852829,369.373718 222.142166,369.373718 
	C222.142166,373.717194 222.142166,377.812866 222.449402,382.742920 
M158.336060,374.840363 
	C160.600723,376.198303 162.865387,377.556213 165.130051,378.914154 
	C164.980667,379.416718 164.831284,379.919281 164.681885,380.421875 
	C162.196396,380.212402 159.710907,380.002960 157.225418,379.793518 
	C160.111267,383.300781 164.174026,384.801270 166.612610,381.440369 
	C171.199005,375.119293 161.836182,376.303497 160.598404,372.108337 
	C162.984467,372.108337 165.030594,372.108337 167.076721,372.108337 
	C167.170044,371.524567 167.263382,370.940826 167.356705,370.357056 
	C165.293259,370.011688 162.978256,368.942932 161.244583,369.545868 
	C159.813080,370.043640 159.069153,372.518524 158.336060,374.840363 
M246.105469,373.305603 
	C247.147537,372.649750 248.114426,371.739441 249.251053,371.403595 
	C250.618225,370.999634 252.129761,371.084290 253.578796,370.957397 
	C253.551193,370.517792 253.523575,370.078217 253.495972,369.638611 
	C250.380203,369.638611 247.264450,369.638611 244.159485,369.638611 
	C244.159485,374.088837 244.159485,378.472565 244.159485,382.525238 
	C247.631760,382.525238 250.761459,382.525238 253.891159,382.525238 
	C253.910873,382.101562 253.930603,381.677887 253.950333,381.254211 
	C251.483810,381.074799 249.017303,380.895386 245.187119,380.616760 
	C246.476105,379.022919 247.067917,377.600220 248.051086,377.237091 
	C249.530945,376.690460 251.284576,376.885040 252.921829,376.764496 
	C252.906006,376.382080 252.890198,375.999664 252.874374,375.617249 
	C250.633240,375.144073 248.392090,374.670868 246.105469,373.305603 
M187.726517,370.322601 
	C187.699524,371.814911 187.694992,373.308014 187.640579,374.799316 
	C187.544952,377.419434 187.972351,380.690308 184.196411,380.811981 
	C180.045578,380.945679 180.487091,377.503601 180.310349,374.703796 
	C180.192291,372.833954 179.910645,370.974396 179.702209,369.110260 
	C179.123810,369.154633 178.545425,369.199005 177.967026,369.243378 
	C177.967026,371.614624 177.998138,373.986359 177.959564,376.356964 
	C177.904892,379.718658 179.082047,382.700775 182.636002,382.779907 
	C184.860184,382.829407 188.742081,381.327271 189.050049,379.907501 
	C189.771332,376.582214 188.789062,372.887390 188.496490,369.342194 
	C188.343994,369.407593 188.191513,369.473022 187.726517,370.322601 
M210.700455,370.422760 
	C207.738647,369.843140 204.776840,369.263519 201.753479,368.671875 
	C201.753479,374.075348 201.753479,378.568024 201.753479,383.060730 
	C202.144287,383.105957 202.535080,383.151215 202.925888,383.196472 
	C203.424515,381.846619 203.923157,380.496796 204.411957,379.173553 
	C211.890808,378.574219 213.191574,376.988464 210.700455,370.422760 
M312.032379,378.537811 
	C315.939789,384.179016 320.141571,384.759827 323.732025,379.708527 
	C320.000610,380.532623 315.328766,382.299500 314.500031,377.358337 
	C313.191071,369.553680 319.900452,372.287048 324.052032,371.208557 
	C321.105194,370.092957 318.173981,369.359833 315.700623,370.118835 
	C312.292572,371.164642 311.298370,374.316162 312.032379,378.537811 
M337.474426,378.720795 
	C337.785065,380.214813 338.095703,381.708801 338.577606,384.026550 
	C340.784485,378.341461 342.521729,373.866241 344.258942,369.391022 
	C343.945679,369.213837 343.632416,369.036652 343.319183,368.859436 
	C341.766632,370.970520 340.214081,373.081604 338.723389,375.108612 
	C337.046600,372.887451 335.529480,370.877808 334.012360,368.868195 
	C333.627533,369.171173 333.242706,369.474182 332.857880,369.777161 
	C334.285980,372.512085 335.714050,375.247009 337.474426,378.720795 
z"/>
<path fill="#00FAF7" opacity="1.000000" stroke="none" 
	d="
M228.723083,122.582169 
	C195.975266,145.825287 194.574753,190.762497 225.948166,215.413223 
	C234.316406,221.988297 244.085617,226.654999 255.326736,226.216965 
	C258.469452,226.094498 259.439026,227.153870 259.089966,230.291031 
	C258.745483,233.386902 259.014740,236.551056 259.014740,240.794815 
	C251.590271,239.699081 244.469193,238.648132 237.600189,237.634384 
	C238.261612,241.996567 238.734528,246.676590 239.824356,251.208282 
	C240.097778,252.345169 242.321396,253.701828 243.701370,253.762619 
	C249.183731,254.004059 254.690811,253.878265 260.180939,253.676361 
	C263.451965,253.556046 264.064697,255.167465 263.955200,257.989624 
	C263.851776,260.655853 264.035156,262.956451 260.202179,262.904327 
	C250.045242,262.766174 239.885040,262.881622 229.726257,262.856323 
	C226.770142,262.848938 224.448334,261.804871 224.050156,258.492523 
	C223.669678,255.327377 225.353363,254.225098 228.330368,253.612549 
	C229.346954,253.403366 230.620300,250.691116 230.484787,249.243423 
	C229.615616,239.959091 224.891296,232.739807 217.791626,226.887985 
	C206.828674,217.851852 198.085770,207.187958 193.061981,193.666306 
	C178.429047,154.281479 204.658234,108.381195 246.272461,101.063499 
	C253.232574,99.839584 260.398407,99.785408 268.005951,99.145576 
	C268.188324,101.922142 268.399689,103.682602 268.404816,105.443665 
	C268.455261,122.763657 268.479401,140.083755 268.493164,157.403824 
	C268.498505,164.114624 268.099701,164.508942 261.452271,164.339447 
	C259.322998,164.285172 257.197571,164.080505 254.602631,163.914764 
	C254.602631,154.403961 254.602737,145.281525 254.602585,136.159088 
	C254.602493,130.996368 254.644501,125.833206 254.590790,120.671043 
	C254.524643,114.314682 253.709442,113.392471 247.533981,115.247353 
	C241.219360,117.144020 235.179764,119.956337 228.723083,122.582169 
z"/>
<path fill="#FAFAFA" opacity="1.000000" stroke="none" 
	d="
M298.993896,203.994629 
	C274.858734,229.937225 237.418198,222.754410 220.476303,199.249573 
	C203.239975,175.336212 210.678070,139.855194 236.284180,125.457680 
	C237.784531,124.614075 239.560593,124.260811 241.238068,123.668877 
	C244.009369,133.359711 243.361694,135.388870 235.909409,141.408066 
	C221.807755,152.797928 219.693787,178.076630 231.725296,193.060394 
	C241.983566,205.835785 255.269745,210.823700 271.209229,206.752548 
	C286.818542,202.765747 296.854492,192.372375 299.541840,176.596191 
	C302.162689,161.210098 297.233490,147.633179 283.899414,138.706955 
	C276.966888,134.066116 279.677338,128.091537 279.073425,122.265831 
	C313.162842,132.362793 325.000336,178.085815 298.993896,203.994629 
z"/>
<path fill="#00F5F2" opacity="1.000000" stroke="none" 
	d="
M237.023758,323.935608 
	C243.645111,320.959473 246.104797,322.074127 247.892853,328.837524 
	C249.099655,333.402252 250.329330,337.960907 252.639725,342.514130 
	C254.370438,336.069336 256.101135,329.624542 257.882141,322.992462 
	C260.466736,322.992462 262.891632,322.992462 265.475769,322.992462 
	C267.340729,329.756439 269.177399,336.417847 271.397705,344.470581 
	C273.607971,336.290283 275.421082,329.579926 277.238190,322.854736 
	C279.807281,322.854736 282.121368,322.854736 285.016327,322.854736 
	C281.863342,332.521149 279.093811,342.039703 275.447571,351.209625 
	C274.817444,352.794342 270.469788,352.900818 267.491791,353.794373 
	C265.473328,346.607666 263.698669,340.289062 261.538605,332.598145 
	C259.395844,340.199036 257.645721,346.407074 255.907898,352.571503 
	C248.094894,353.640808 248.158585,353.619202 245.770294,346.574921 
	C243.164078,338.887848 240.423950,331.246124 237.375122,323.724487 
	C237.008057,323.864319 237.023758,323.935608 237.023758,323.935608 
z"/>
<path fill="#00F6F3" opacity="1.000000" stroke="none" 
	d="
M152.784027,344.952820 
	C149.094955,334.725281 152.825684,326.029388 161.776154,323.241608 
	C171.506744,320.210846 181.289276,325.293793 183.428818,334.492188 
	C184.945251,341.011627 182.015656,347.650513 176.107269,351.083954 
	C169.786041,354.757294 160.806931,353.802887 155.701859,348.822418 
	C154.645798,347.792145 153.866531,346.478210 152.784027,344.952820 
M160.070145,342.138763 
	C164.868607,348.277405 171.808167,348.300110 174.789139,342.093323 
	C176.704498,338.105316 176.157730,334.274597 172.902893,331.195129 
	C170.067093,328.512146 166.650253,328.086945 163.331970,330.209259 
	C159.149231,332.884460 158.087418,336.774200 160.070145,342.138763 
z"/>
<path fill="#00F6F3" opacity="1.000000" stroke="none" 
	d="
M342.148254,353.014435 
	C340.184540,351.619995 338.036530,350.511444 337.197479,348.771606 
	C335.495880,345.243042 333.398102,343.452362 328.935120,344.991425 
	C328.935120,347.339874 328.935120,349.915985 328.935120,352.748810 
	C326.179352,352.748810 323.912140,352.748810 321.318848,352.748810 
	C321.318848,342.980164 321.318848,333.081055 321.318848,323.075470 
	C326.898163,323.075470 332.542480,322.767395 338.133698,323.179657 
	C342.115082,323.473145 345.578979,325.564056 346.634766,329.770203 
	C347.939758,334.969116 347.031006,339.705597 341.830750,343.029175 
	C343.831696,346.278503 345.701996,349.315704 347.979797,353.014648 
	C345.712646,353.014648 344.134460,353.014648 342.148254,353.014435 
M328.926392,329.685150 
	C328.926392,332.452087 328.926392,335.218994 328.926392,338.158417 
	C331.476776,338.158417 333.865784,338.770294 335.633942,337.984741 
	C337.371155,337.212952 339.584808,334.996948 339.550110,333.460724 
	C339.515411,331.923126 337.204559,329.893463 335.433746,329.097168 
	C333.787048,328.356628 331.537292,328.957153 328.926392,329.685150 
z"/>
<path fill="#00F7F5" opacity="1.000000" stroke="none" 
	d="
M358.204041,322.749329 
	C364.293335,322.749359 369.910034,322.749359 375.687408,322.749359 
	C375.687408,324.862549 375.687408,326.495941 375.687408,328.642914 
	C370.572113,328.642914 365.508087,328.642914 360.148376,328.642914 
	C360.148376,330.869720 360.148376,332.588806 360.148376,334.711060 
	C364.654938,334.711060 369.083221,334.711060 373.819122,334.711060 
	C373.819122,336.837921 373.819122,338.572510 373.819122,340.853027 
	C369.324097,340.853027 364.760712,340.853027 360.028503,340.853027 
	C360.028503,343.011169 360.028503,344.630005 360.028503,346.772949 
	C365.197296,346.772949 370.420776,346.772949 375.898041,346.772949 
	C375.898041,349.023560 375.898041,350.757751 375.898041,352.753967 
	C368.140930,352.753967 360.390778,352.753967 352.318481,352.753967 
	C352.318481,342.913849 352.318481,333.028503 352.318481,322.749268 
	C354.114471,322.749268 355.922943,322.749268 358.204041,322.749329 
z"/>
<path fill="#00F5F2" opacity="1.000000" stroke="none" 
	d="
M134.592789,322.630493 
	C139.438217,323.205963 143.879623,323.852753 149.139999,324.618805 
	C147.622879,327.733612 146.776047,329.472290 145.951111,331.165955 
	C142.497375,330.316803 139.355667,329.361908 136.143112,328.867096 
	C135.193512,328.720856 134.043945,329.872955 132.986008,330.430115 
	C133.728195,331.395966 134.271957,332.775787 135.251938,333.245453 
	C137.634109,334.387115 140.231171,335.073120 142.719208,336.002808 
	C146.551590,337.434784 148.768356,340.208221 148.693848,344.315704 
	C148.622696,348.236969 146.346619,350.812134 142.678543,352.042236 
	C135.491791,354.452423 129.009583,352.937286 122.778557,348.374512 
	C123.742691,346.460968 124.618294,344.723114 125.387085,343.197266 
	C129.042862,344.505493 132.366257,346.025757 135.855194,346.771454 
	C137.151260,347.048431 138.835251,345.510345 140.342331,344.800018 
	C139.337311,343.666107 138.502289,342.272369 137.279083,341.471863 
	C136.074249,340.683380 134.472305,340.507507 133.051071,340.042969 
	C126.448517,337.884857 124.262405,335.462860 124.781235,330.584839 
	C125.375076,325.001526 129.455078,323.425293 134.592789,322.630493 
z"/>
<path fill="#00F7F5" opacity="1.000000" stroke="none" 
	d="
M292.388123,335.303650 
	C293.688812,332.379852 294.934662,329.835327 295.885864,327.185059 
	C296.906799,324.340576 298.059113,322.598145 301.755310,322.558197 
	C305.439606,322.518372 306.573212,324.230988 307.708160,327.036163 
	C311.121490,335.472717 314.698181,343.843140 318.397217,352.684143 
	C315.574005,352.684143 313.195557,352.684143 310.379791,352.684143 
	C309.148651,344.893433 302.810425,347.385468 298.007843,347.622009 
	C295.932312,347.724213 293.980194,350.332520 291.972015,351.802429 
	C292.185394,352.142426 292.398743,352.482452 292.612122,352.822449 
	C290.177216,352.822449 287.742310,352.822449 284.900177,352.822449 
	C287.420837,346.890991 289.812225,341.263672 292.388123,335.303650 
M305.249847,339.922546 
	C304.114441,337.022888 302.979004,334.123230 301.469421,330.267975 
	C299.860199,334.669861 298.664917,337.939484 297.063995,342.318787 
	C300.652039,341.596985 303.053253,341.113922 305.249847,339.922546 
z"/>
<path fill="#00F7F5" opacity="1.000000" stroke="none" 
	d="
M209.796021,328.772980 
	C205.336792,328.772980 200.877563,328.772980 196.131668,328.772980 
	C196.131668,331.221863 196.131668,333.271545 196.131668,335.681885 
	C200.373978,335.681885 204.482285,335.681885 208.929993,335.681885 
	C208.929993,337.901062 208.929993,339.769867 208.929993,341.943787 
	C204.619583,341.943787 200.512177,341.943787 195.948425,341.943787 
	C195.948425,345.623413 195.948425,349.029144 195.948425,352.715515 
	C193.236389,352.715515 190.976318,352.715515 188.355453,352.715515 
	C188.355453,343.050690 188.355453,333.192444 188.355453,322.785736 
	C195.249039,322.785736 202.164413,322.785736 209.576340,323.286743 
	C209.980606,325.449463 209.888321,327.111237 209.796021,328.772980 
z"/>
<path fill="#EFEFEF" opacity="1.000000" stroke="none" 
	d="
M261.929535,279.117645 
	C251.585724,279.273804 241.647110,279.339935 231.708771,279.309723 
	C228.574295,279.300201 225.984787,278.221069 226.145538,274.490570 
	C226.303299,270.829010 229.044891,270.663788 231.885574,270.643219 
	C240.506622,270.580719 249.126694,270.380798 257.747742,270.325195 
	C264.338318,270.282654 265.688477,272.898163 261.929535,279.117645 
z"/>
<path fill="#00F6F3" opacity="1.000000" stroke="none" 
	d="
M236.814850,323.459229 
	C237.023758,323.935608 237.008057,323.864319 236.976624,323.845642 
	C237.017593,325.311523 237.089996,326.796082 237.183655,328.716827 
	C234.227890,328.846924 231.470016,328.968292 228.293137,329.108154 
	C228.293137,336.825897 228.293137,344.571747 228.293137,352.663391 
	C225.519058,352.663391 223.152634,352.663391 220.299255,352.663391 
	C220.299255,344.894592 220.299255,337.153534 220.299255,328.943329 
	C217.560547,328.943329 215.281448,328.943329 212.416931,328.501831 
	C211.882233,326.309479 211.932968,324.558655 211.983704,322.807800 
	C220.191116,322.866150 228.398544,322.924469 236.814850,323.459229 
z"/>
<path fill="#00EDEA" opacity="1.000000" stroke="none" 
	d="
M254.876740,285.211914 
	C256.852081,285.201263 258.350372,285.196472 259.848602,285.186218 
	C263.605011,285.160522 263.942505,287.572205 263.965485,290.556427 
	C263.988495,293.547974 262.789429,294.810883 259.827026,294.750702 
	C253.838425,294.629028 247.819183,294.921906 241.876114,294.365326 
	C240.241486,294.212250 237.739075,291.732788 237.634445,290.185608 
	C237.535339,288.719849 239.874023,285.992188 241.464188,285.721649 
	C245.682648,285.003967 250.075928,285.314056 254.876740,285.211914 
z"/>
<path fill="#E6E6E6" opacity="1.000000" stroke="none" 
	d="
M264.818970,376.926636 
	C264.818817,374.047760 264.818817,371.611694 264.818817,369.175629 
	C265.373749,368.972565 265.928650,368.769501 266.483582,368.566437 
	C268.296997,371.420166 270.110382,374.273926 272.151459,377.485962 
	C273.925293,374.417786 275.613831,371.497131 277.302368,368.576477 
	C277.764313,368.785614 278.226227,368.994781 278.688171,369.203949 
	C278.688171,373.789520 278.688171,378.375061 278.688171,382.960602 
	C278.253082,382.980774 277.817963,383.000946 277.382874,383.021088 
	C277.382874,380.446564 277.382874,377.872009 277.382874,375.297455 
	C277.033386,375.235535 276.683899,375.173584 276.334412,375.111633 
	C275.067169,377.295746 273.799927,379.479858 272.038239,382.516113 
	C270.409210,379.633362 269.114838,377.342834 267.236145,374.018280 
	C267.066010,377.841187 266.950378,380.439484 266.834747,383.037750 
	C266.286804,383.049438 265.738892,383.061096 265.190979,383.072754 
	C265.067047,381.171631 264.943085,379.270538 264.818970,376.926636 
z"/>
<path fill="#DFDFDF" opacity="1.000000" stroke="none" 
	d="
M293.508728,371.509094 
	C295.199921,367.874023 296.671753,368.597717 297.911774,371.313904 
	C299.604309,375.021332 301.159393,378.791443 302.703857,383.195465 
	C298.150116,379.610657 293.697845,377.760498 288.745300,382.700012 
	C290.269745,379.075714 291.794189,375.451385 293.508728,371.509094 
z"/>
<path fill="#D7D7D7" opacity="1.000000" stroke="none" 
	d="
M222.295776,382.325714 
	C222.142166,377.812866 222.142166,373.717194 222.142166,369.373718 
	C224.852829,369.373718 227.150879,369.097839 229.354431,369.436646 
	C232.894012,369.980835 233.754395,372.415955 233.050354,375.690338 
	C232.565262,377.946533 232.229843,380.234894 231.788055,382.732086 
	C230.376755,381.655090 228.229675,380.016632 226.799088,378.924896 
	C224.784409,380.693329 223.616898,381.718140 222.295776,382.325714 
M228.867767,376.645416 
	C229.548630,375.514435 230.229492,374.383453 230.910355,373.252472 
	C229.160843,372.455688 227.411346,371.658936 224.954910,370.540192 
	C225.054352,374.028198 223.081955,377.265900 228.867767,376.645416 
z"/>
<path fill="#DFDFDF" opacity="1.000000" stroke="none" 
	d="
M158.178299,374.478821 
	C159.069153,372.518524 159.813080,370.043640 161.244583,369.545868 
	C162.978256,368.942932 165.293259,370.011688 167.356705,370.357056 
	C167.263382,370.940826 167.170044,371.524567 167.076721,372.108337 
	C165.030594,372.108337 162.984467,372.108337 160.598404,372.108337 
	C161.836182,376.303497 171.199005,375.119293 166.612610,381.440369 
	C164.174026,384.801270 160.111267,383.300781 157.225418,379.793518 
	C159.710907,380.002960 162.196396,380.212402 164.681885,380.421875 
	C164.831284,379.919281 164.980667,379.416718 165.130051,378.914154 
	C162.865387,377.556213 160.600723,376.198303 158.178299,374.478821 
z"/>
<path fill="#EFEFEF" opacity="1.000000" stroke="none" 
	d="
M246.128204,373.751648 
	C248.392090,374.670868 250.633240,375.144073 252.874374,375.617249 
	C252.890198,375.999664 252.906006,376.382080 252.921829,376.764496 
	C251.284576,376.885040 249.530945,376.690460 248.051086,377.237091 
	C247.067917,377.600220 246.476105,379.022919 245.187119,380.616760 
	C249.017303,380.895386 251.483810,381.074799 253.950333,381.254211 
	C253.930603,381.677887 253.910873,382.101562 253.891159,382.525238 
	C250.761459,382.525238 247.631760,382.525238 244.159485,382.525238 
	C244.159485,378.472565 244.159485,374.088837 244.159485,369.638611 
	C247.264450,369.638611 250.380203,369.638611 253.495972,369.638611 
	C253.523575,370.078217 253.551193,370.517792 253.578796,370.957397 
	C252.129761,371.084290 250.618225,370.999634 249.251053,371.403595 
	C248.114426,371.739441 247.147537,372.649750 246.128204,373.751648 
z"/>
<path fill="#E6E6E6" opacity="1.000000" stroke="none" 
	d="
M187.882767,369.930511 
	C188.191513,369.473022 188.343994,369.407593 188.496490,369.342194 
	C188.789062,372.887390 189.771332,376.582214 189.050049,379.907501 
	C188.742081,381.327271 184.860184,382.829407 182.636002,382.779907 
	C179.082047,382.700775 177.904892,379.718658 177.959564,376.356964 
	C177.998138,373.986359 177.967026,371.614624 177.967026,369.243378 
	C178.545425,369.199005 179.123810,369.154633 179.702209,369.110260 
	C179.910645,370.974396 180.192291,372.833954 180.310349,374.703796 
	C180.487091,377.503601 180.045578,380.945679 184.196411,380.811981 
	C187.972351,380.690308 187.544952,377.419434 187.640579,374.799316 
	C187.694992,373.308014 187.699524,371.814911 187.882767,369.930511 
z"/>
<path fill="#D7D7D7" opacity="1.000000" stroke="none" 
	d="
M210.937988,370.710724 
	C213.191574,376.988464 211.890808,378.574219 204.411957,379.173553 
	C203.923157,380.496796 203.424515,381.846619 202.925888,383.196472 
	C202.535080,383.151215 202.144287,383.105957 201.753479,383.060730 
	C201.753479,378.568024 201.753479,374.075348 201.753479,368.671875 
	C204.776840,369.263519 207.738647,369.843140 210.937988,370.710724 
M206.938065,371.416199 
	C201.911957,370.923981 204.203644,374.286835 203.715363,377.749084 
	C206.347305,376.493774 208.050385,375.681488 209.753448,374.869232 
	C209.072052,373.781372 208.390671,372.693542 206.938065,371.416199 
z"/>
<path fill="#DFDFDF" opacity="1.000000" stroke="none" 
	d="
M311.980530,378.180756 
	C311.298370,374.316162 312.292572,371.164642 315.700623,370.118835 
	C318.173981,369.359833 321.105194,370.092957 324.052032,371.208557 
	C319.900452,372.287048 313.191071,369.553680 314.500031,377.358337 
	C315.328766,382.299500 320.000610,380.532623 323.732025,379.708527 
	C320.141571,384.759827 315.939789,384.179016 311.980530,378.180756 
z"/>
<path fill="#DFDFDF" opacity="1.000000" stroke="none" 
	d="
M337.308289,378.351379 
	C335.714050,375.247009 334.285980,372.512085 332.857880,369.777161 
	C333.242706,369.474182 333.627533,369.171173 334.012360,368.868195 
	C335.529480,370.877808 337.046600,372.887451 338.723389,375.108612 
	C340.214081,373.081604 341.766632,370.970520 343.319183,368.859436 
	C343.632416,369.036652 343.945679,369.213837 344.258942,369.391022 
	C342.521729,373.866241 340.784485,378.341461 338.577606,384.026550 
	C338.095703,381.708801 337.785065,380.214813 337.308289,378.351379 
z"/>
<path fill="#006B6A" opacity="1.000000" stroke="none" 
	d="
M211.828812,322.628418 
	C211.932968,324.558655 211.882233,326.309479 211.964142,328.480438 
	C211.583878,328.908844 211.070953,328.917175 210.177032,328.849243 
	C209.888321,327.111237 209.980606,325.449463 210.038788,323.371033 
	C210.561081,322.785919 211.117508,322.617493 211.828812,322.628418 
z"/>
<path fill="#000808" opacity="1.000000" stroke="none" 
	d="
M159.906189,341.782745 
	C158.087418,336.774200 159.149231,332.884460 163.331970,330.209259 
	C166.650253,328.086945 170.067093,328.512146 172.902893,331.195129 
	C176.157730,334.274597 176.704498,338.105316 174.789139,342.093323 
	C171.808167,348.300110 164.868607,348.277405 159.906189,341.782745 
z"/>
<path fill="#000808" opacity="1.000000" stroke="none" 
	d="
M329.239685,329.326202 
	C331.537292,328.957153 333.787048,328.356628 335.433746,329.097168 
	C337.204559,329.893463 339.515411,331.923126 339.550110,333.460724 
	C339.584808,334.996948 337.371155,337.212952 335.633942,337.984741 
	C333.865784,338.770294 331.476776,338.158417 328.926392,338.158417 
	C328.926392,335.218994 328.926392,332.452087 329.239685,329.326202 
z"/>
<path fill="#1A1A1A" opacity="1.000000" stroke="none" 
	d="
M305.352142,340.276733 
	C303.053253,341.113922 300.652039,341.596985 297.063995,342.318787 
	C298.664917,337.939484 299.860199,334.669861 301.469421,330.267975 
	C302.979004,334.123230 304.114441,337.022888 305.352142,340.276733 
z"/>
<path fill="#1A1A1A" opacity="1.000000" stroke="none" 
	d="
M228.457245,376.715149 
	C223.081955,377.265900 225.054352,374.028198 224.954910,370.540192 
	C227.411346,371.658936 229.160843,372.455688 230.910355,373.252472 
	C230.229492,374.383453 229.548630,375.514435 228.457245,376.715149 
z"/>
<path fill="#1A1A1A" opacity="1.000000" stroke="none" 
	d="
M207.323669,371.510925 
	C208.390671,372.693542 209.072052,373.781372 209.753448,374.869232 
	C208.050385,375.681488 206.347305,376.493774 203.715363,377.749084 
	C204.203644,374.286835 201.911957,370.923981 207.323669,371.510925 
z"/>
</svg>